# xmcd CD database file
#
# Track frame offsets:
#	182
#	19255
#	29705
#	41202
#	52542
#	67547
#	80672
#	93885
#	107765
#	122407
#	135027
#	148430
#	161765
#	175585
#
# Disc length: 2480 seconds
#
# Revision: 0
# Processed by: cddbd v1.4PL0 Copyright (c) Steve Scherf et al.
# Submitted via: CDex 1.50beta9
#
DISCID=ae09ae0e
DTITLE=Brendon Quinn - Back In Town
DYEAR=1990
DGENRE=Country
TTITLE0=Don't Close Yours Eyes
TTITLE1=Hiway To Nowhere
TTITLE2=Release Me
TTITLE3=Somebody's Back In Town
TTITLE4=The Hobo's Meditation
TTITLE5=Letter To Home
TTITLE6=A Picture Of Your Mother
TTITLE7=Moonlight In Mayo
TTITLE8=The Cowboy Rides Away
TTITLE9=Bonaparte's Retreat
TTITLE10=Let Me Live With Love (and Die With You)
TTITLE11=Sweet Molly Brown's
TTITLE12=You've Still Got A Place In My Heart
TTITLE13=I Wonder Where You Are Tonight
EXTD=YEAR: 1990
EXTT0=
EXTT1=
EXTT2=
EXTT3=
EXTT4=
EXTT5=
EXTT6=
EXTT7=
EXTT8=
EXTT9=
EXTT10=
EXTT11=
EXTT12=
EXTT13=
PLAYORDER=
